<?xml version="1.0" encoding="iso-8859-1"?>
<!-- Generator: Adobe Illustrator 18.1.1, SVG Export Plug-In . SVG Version: 6.00 Build 0)  -->
<svg version="1.1" id="Capa_1" xmlns="http://www.w3.org/2000/svg" xmlns:xlink="http://www.w3.org/1999/xlink" x="0px" y="0px"
	 viewBox="0 0 288.896 288.896" style="enable-background:new 0 0 288.896 288.896;" xml:space="preserve">
<g>
	<path style="fill:#708090;" d="M24.329,217.563c0.941,15.126-0.577,32.112-3.323,36.23c-5.608,7-6.831,15.605-3.274,23.002
		c2.17,4.52,7.859,12.102,21.571,12.102c13.81,0,42.697-8.474,57.224-13.027c10.661,3.062,32.776,8.849,47.924,8.849
		c78.497,0,142.357-63.86,142.357-142.357C286.807,63.86,222.947,0,144.451,0C65.949,0,2.089,63.86,2.089,142.362
		C2.083,168.491,18.64,205.591,24.329,217.563z M144.445,38.079c57.502,0,104.283,46.787,104.283,104.289
		s-46.781,104.283-104.283,104.283c-10.274,0-31.465-5.439-42.414-8.866l-5.798-1.817l-5.776,1.876
		c-9.154,2.975-19.619,6.048-28.816,8.463c1.822-14.74,0.914-29.262,0.359-35.474l-0.326-3.579l-1.594-3.209
		c-7.702-15.512-19.923-45.971-19.923-61.674C40.157,84.866,86.943,38.079,144.445,38.079z M39.303,250.828v19.037l-0.027-19.037
		C39.281,250.828,39.292,250.828,39.303,250.828z"/>
	<circle style="fill:#708090;" cx="89.897" cy="150.825" r="12.238"/>
	<circle style="fill:#708090;" cx="148.367" cy="150.825" r="12.238"/>
	<circle style="fill:#708090;" cx="206.837" cy="150.825" r="12.238"/>
</g>
<g>
</g>
<g>
</g>
<g>
</g>
<g>
</g>
<g>
</g>
<g>
</g>
<g>
</g>
<g>
</g>
<g>
</g>
<g>
</g>
<g>
</g>
<g>
</g>
<g>
</g>
<g>
</g>
<g>
</g>
</svg>
